<svg width="3201" height="717" viewBox="0 0 3201 717" fill="none" xmlns="http://www.w3.org/2000/svg">
<path d="M1056.5 384V374C1056.5 367 1060 363.5 1067 363.5H1109.5C1116.5 363.5 1120 367 1120 374V378C1120 390.667 1122.5 399.333 1127.5 404C1132.5 408.667 1141.67 411 1155 411H1178.5C1191.5 411 1200.5 408.5 1205.5 403.5C1210.83 398.5 1213.5 389.167 1213.5 375.5V369.5C1213.5 359.833 1209.5 352.5 1201.5 347.5C1193.83 342.167 1184.17 339 1172.5 338C1160.83 337 1148.17 335.167 1134.5 332.5C1121.17 329.5 1108.67 325.833 1097 321.5C1085.33 316.833 1075.5 308 1067.5 295C1059.83 281.667 1056 264.667 1056 244V226.5C1056 200.5 1063.33 180.333 1078 166C1092.67 151.667 1113 144.5 1139 144.5H1189C1215.33 144.5 1235.83 151.667 1250.5 166C1265.17 180.333 1272.5 200.5 1272.5 226.5V236C1272.5 243 1269 246.5 1262 246.5H1219.5C1212.5 246.5 1209 243 1209 236V233C1209 220 1206.5 211.167 1201.5 206.5C1196.5 201.833 1187.33 199.5 1174 199.5H1154.5C1140.83 199.5 1131.5 202.167 1126.5 207.5C1121.83 212.5 1119.5 222.5 1119.5 237.5V247C1119.5 262.667 1133.17 271.667 1160.5 274C1188.83 276.333 1214 282 1236 291C1247.67 296 1257.33 305 1265 318C1273 330.667 1277 347 1277 367V384C1277 410 1269.67 430.167 1255 444.5C1240.33 458.833 1220 466 1194 466H1139.5C1113.5 466 1093.17 458.833 1078.5 444.5C1063.83 430.167 1056.5 410 1056.5 384ZM1452.03 466H1409.53C1402.53 466 1399.03 462.5 1399.03 455.5V348.5L1307.53 155.5C1306.2 152.5 1306.2 150 1307.53 148C1309.2 145.667 1311.53 144.5 1314.53 144.5H1367.53C1372.86 144.5 1376.86 148 1379.53 155L1429.53 276.5H1433.03L1482.03 155C1484.36 148 1488.36 144.5 1494.03 144.5H1547.03C1550.36 144.5 1552.7 145.5 1554.03 147.5C1555.7 149.5 1555.7 152.167 1554.03 155.5L1462.53 348.5V455.5C1462.53 462.5 1459.03 466 1452.03 466ZM1584.33 384V374C1584.33 367 1587.83 363.5 1594.83 363.5H1637.33C1644.33 363.5 1647.83 367 1647.83 374V378C1647.83 390.667 1650.33 399.333 1655.33 404C1660.33 408.667 1669.5 411 1682.83 411H1706.33C1719.33 411 1728.33 408.5 1733.33 403.5C1738.67 398.5 1741.33 389.167 1741.33 375.5V369.5C1741.33 359.833 1737.33 352.5 1729.33 347.5C1721.67 342.167 1712 339 1700.33 338C1688.67 337 1676 335.167 1662.33 332.5C1649 329.5 1636.5 325.833 1624.83 321.5C1613.17 316.833 1603.33 308 1595.33 295C1587.67 281.667 1583.83 264.667 1583.83 244V226.5C1583.83 200.5 1591.17 180.333 1605.83 166C1620.5 151.667 1640.83 144.5 1666.83 144.5H1716.83C1743.17 144.5 1763.67 151.667 1778.33 166C1793 180.333 1800.33 200.5 1800.33 226.5V236C1800.33 243 1796.83 246.5 1789.83 246.5H1747.33C1740.33 246.5 1736.83 243 1736.83 236V233C1736.83 220 1734.33 211.167 1729.33 206.5C1724.33 201.833 1715.17 199.5 1701.83 199.5H1682.33C1668.67 199.5 1659.33 202.167 1654.33 207.5C1649.67 212.5 1647.33 222.5 1647.33 237.5V247C1647.33 262.667 1661 271.667 1688.33 274C1716.67 276.333 1741.83 282 1763.83 291C1775.5 296 1785.17 305 1792.83 318C1800.83 330.667 1804.83 347 1804.83 367V384C1804.83 410 1797.5 430.167 1782.83 444.5C1768.17 458.833 1747.83 466 1721.83 466H1667.33C1641.33 466 1621 458.833 1606.33 444.5C1591.67 430.167 1584.33 410 1584.33 384ZM1961.36 466H1919.36C1912.03 466 1908.36 462.5 1908.36 455.5V205C1908.36 201.333 1906.53 199.5 1902.86 199.5H1845.86C1838.86 199.5 1835.36 196 1835.36 189V155C1835.36 148 1838.86 144.5 1845.86 144.5H2034.86C2041.86 144.5 2045.36 148 2045.36 155V189C2045.36 196 2041.86 199.5 2034.86 199.5H1977.86C1973.86 199.5 1971.86 201.333 1971.86 205V455.5C1971.86 462.5 1968.36 466 1961.36 466ZM2257.54 466H2094.04C2087.04 466 2083.54 462.5 2083.54 455.5V155C2083.54 148 2087.04 144.5 2094.04 144.5H2257.54C2264.21 144.5 2267.54 148 2267.54 155V189C2267.54 196 2264.21 199.5 2257.54 199.5H2153.04C2149.04 199.5 2147.04 201.333 2147.04 205V270C2147.04 273.667 2149.04 275.5 2153.04 275.5H2238.54C2245.54 275.5 2249.04 279 2249.04 286V320C2249.04 327 2245.54 330.5 2238.54 330.5H2153.04C2149.04 330.5 2147.04 332.333 2147.04 336V405.5C2147.04 409.167 2149.04 411 2153.04 411H2257.54C2264.21 411 2267.54 414.5 2267.54 421.5V455.5C2267.54 462.5 2264.21 466 2257.54 466ZM2536.3 144.5H2610.3C2617.3 144.5 2620.8 148 2620.8 155V455.5C2620.8 462.5 2617.3 466 2610.3 466H2569.3C2562.3 466 2558.8 462.5 2558.8 455.5V218.5H2556.8L2505.8 386C2503.8 392.667 2499.63 396 2493.3 396H2451.3C2444.97 396 2440.8 392.667 2438.8 386L2386.8 218H2384.8V455.5C2384.8 459.5 2384.13 462.333 2382.8 464C2381.47 465.333 2378.63 466 2374.3 466H2333.3C2326.3 466 2322.8 462.5 2322.8 455.5V155C2322.8 148 2326.3 144.5 2333.3 144.5H2407.8C2412.47 144.5 2415.63 146.833 2417.3 151.5L2470.3 328H2473.3L2526.8 151.5C2527.8 146.833 2530.97 144.5 2536.3 144.5ZM2719.09 466H2671.09C2665.09 466 2663.09 462.5 2665.09 455.5L2744.09 155C2746.43 148 2751.43 144.5 2759.09 144.5H2825.59C2833.93 144.5 2838.93 148 2840.59 155L2919.59 455.5C2921.59 462.5 2919.59 466 2913.59 466H2865.59C2861.93 466 2859.43 465.333 2858.09 464C2856.76 462.333 2855.76 459.5 2855.09 455.5L2841.09 400.5H2743.59L2729.59 455.5C2728.93 459.5 2727.76 462.333 2726.09 464C2724.76 465.333 2722.43 466 2719.09 466ZM2791.59 205L2755.59 349.5H2829.59L2793.59 205H2791.59ZM2955.91 384V374C2955.91 367 2959.41 363.5 2966.41 363.5H3008.91C3015.91 363.5 3019.41 367 3019.41 374V378C3019.41 390.667 3021.91 399.333 3026.91 404C3031.91 408.667 3041.08 411 3054.41 411H3077.91C3090.91 411 3099.91 408.5 3104.91 403.5C3110.25 398.5 3112.91 389.167 3112.91 375.5V369.5C3112.91 359.833 3108.91 352.5 3100.91 347.5C3093.25 342.167 3083.58 339 3071.91 338C3060.25 337 3047.58 335.167 3033.91 332.5C3020.58 329.5 3008.08 325.833 2996.41 321.5C2984.75 316.833 2974.91 308 2966.91 295C2959.25 281.667 2955.41 264.667 2955.41 244V226.5C2955.41 200.5 2962.75 180.333 2977.41 166C2992.08 151.667 3012.41 144.5 3038.41 144.5H3088.41C3114.75 144.5 3135.25 151.667 3149.91 166C3164.58 180.333 3171.91 200.5 3171.91 226.5V236C3171.91 243 3168.41 246.5 3161.41 246.5H3118.91C3111.91 246.5 3108.41 243 3108.41 236V233C3108.41 220 3105.91 211.167 3100.91 206.5C3095.91 201.833 3086.75 199.5 3073.41 199.5H3053.91C3040.25 199.5 3030.91 202.167 3025.91 207.5C3021.25 212.5 3018.91 222.5 3018.91 237.5V247C3018.91 262.667 3032.58 271.667 3059.91 274C3088.25 276.333 3113.41 282 3135.41 291C3147.08 296 3156.75 305 3164.41 318C3172.41 330.667 3176.41 347 3176.41 367V384C3176.41 410 3169.08 430.167 3154.41 444.5C3139.75 458.833 3119.41 466 3093.41 466H3038.91C3012.91 466 2992.58 458.833 2977.91 444.5C2963.25 430.167 2955.91 410 2955.91 384Z" fill="#1789FC"/>
<rect width="184.706" height="215.051" rx="10" fill="#1789FC"/>
<rect x="472.674" width="184.706" height="215.051" rx="10" fill="#1789FC"/>
<rect x="219.719" y="0.106445" width="183.208" height="191.802" rx="10" fill="#1789FC"/>
<rect x="691.843" y="0.106445" width="185.157" height="191.802" rx="10" fill="#1789FC"/>
<rect x="219.719" y="524.89" width="183.208" height="191.802" rx="10" fill="#1789FC"/>
<rect x="219.559" y="300.328" width="184.706" height="119.865" rx="10" fill="#1789FC"/>
<rect x="692.233" y="300.328" width="184.706" height="119.865" rx="10" fill="#1789FC"/>
<rect y="250.972" width="184.706" height="215.051" rx="10" fill="#1789FC"/>
<rect x="472.674" y="250.972" width="184.706" height="215.051" rx="10" fill="#1789FC"/>
<rect y="501.945" width="184.706" height="215.051" rx="10" fill="#1789FC"/>
<rect x="472.674" y="501.945" width="184.706" height="215.051" rx="10" fill="#1789FC"/>
</svg>
